<?xml version="1.0" standalone="no"?><svg data-noselect="" 
  viewBox="140.35422649896998 78.37923834096304 548 411" 
  width="548" 
  height="411" 
  ref="svg_canvas" 
  preserveAspectRatio="none" 
  version="1.1" xmlns="http://www.w3.org/2000/svg" 
  style="background: #ffffff;">
    <defs></defs>
    <g id="shape_wJEtNEUlAp" class=""  ref="shape_wJEtNEUlAp" key="shape_wJEtNEUlAp" transform="translate(284.67888488333,324.01452453924) rotate(0,64.525413059437,25.436795482568) scale(1,1)" style="cursor:move;display:inline;opacity:1;" filter="">
            <g style="display:inline"><rect fill="rgba(0,0,0,0)" width="149.05082611887" height="70.873590965136" x="-10" y="-10"></rect><svg version="1.1" id="图层_1" xmlns="http://www.w3.org/2000/svg" xmlns:xlink="http://www.w3.org/1999/xlink" x="0px" y="0px" viewBox="0 0 183 72.5" style="enable-background:new 0 0 183 72.5;" xml:space="preserve" width="129.05082611887" height="50.873590965136" preserveAspectRatio="none" data-parent="shape_wJEtNEUlAp">
<path style="" d="M101.373,44.96c-18.426,8.114-37.656,11.907-57.425,5.324C22.294,43.074,9.31,27.961,3.037,7.755
	C3.17,8.511,3.3,9.267,3.447,10.026c8.057,41.739,42.799,65.709,84.587,58.029c26.035-4.785,47.731-18.138,66.763-35.826
	c9.542-8.868,17.882-18.664,25.166-29.207h-25.755C139.307,21.349,122.551,35.633,101.373,44.96z" fill="#013C96"></path>
</svg></g>
        </g><g id="shape_EGmFyXWUlu" class=""  ref="shape_EGmFyXWUlu" key="shape_EGmFyXWUlu" transform="translate(339.31375824636,192.87036117755) rotate(0,49.831507115207,27.920709323877) scale(1,1)" style="cursor:move;display:inline;opacity:1;" filter="">
            <g style="display:inline"><rect fill="rgba(0,0,0,0)" width="119.663014230415" height="75.841418647753" x="-10" y="-10"></rect><svg version="1.1" id="图层_1" xmlns="http://www.w3.org/2000/svg" xmlns:xlink="http://www.w3.org/1999/xlink" x="0px" y="0px" viewBox="0 0 129 72.279" style="enable-background:new 0 0 129 72.279;" xml:space="preserve" width="99.663014230415" height="55.841418647753" preserveAspectRatio="none" data-parent="shape_EGmFyXWUlu">
<path style="" d="M124.724,60.561c-5.383-25.338-18.756-44.867-43.783-54.449C62.158-1.079,43.21,0.709,24.687,7.358
	C16.842,10.174,9.494,13.592,2.54,17.515c9.988-4.545,20.529-7.624,31.783-8.26c35.206-1.991,61.614,18.903,68.885,53.98
	c0.525,2.533,0.956,5.052,1.304,7.56h21.948C126.023,67.4,125.452,63.989,124.724,60.561z" fill="#013C96"></path>
</svg></g>
        </g><g id="shape_iwxgOxmOyt" class=""  ref="shape_iwxgOxmOyt" key="shape_iwxgOxmOyt" transform="translate(309.36701202393,200.87242126465) rotate(0,19.918644470792,19.918644470792) scale(1,1)" style="cursor:move;display:inline;opacity:1;" filter="">
            <g style="display:inline"><rect fill="rgba(0,0,0,0)" width="59.837288941584" height="59.837288941584" x="-10" y="-10"></rect><svg version="1.1" id="图层_1" xmlns="http://www.w3.org/2000/svg" xmlns:xlink="http://www.w3.org/1999/xlink" x="0px" y="0px" viewBox="0 0 283.465 283.465" style="enable-background:new 0 0 283.465 283.465;" xml:space="preserve" width="39.837288941584" height="39.837288941584" preserveAspectRatio="none" data-parent="shape_iwxgOxmOyt">
<path style="" d="M279.941,140.938c-107.771,17.375-121.279,31.034-137.413,138.997
	c-17.367-107.771-31.036-121.277-139.005-137.41c107.77-17.374,121.279-31.034,137.411-138.996
	C158.31,111.294,171.973,124.805,279.941,140.938z" fill="#F08200"></path>
</svg></g>
        </g><g id="shape_2x4hYb6SlO" class="brand_name"  ref="shape_2x4hYb6SlO" key="shape_2x4hYb6SlO" transform="translate(137.28422649896999,-0.8553799694799693) rotate(0,326.59295047678995,296.96118929999994) scale(1,1)" style="cursor:move;display:inline;opacity:1;" filter="">
            <g style="display:inline"><svg xmlns="http://www.w3.org/2000/svg" version="1.1" xmlns:xlink="http://www.w3.org/1999/xlink" width="720.28" height="582.1342599999999" viewBox="0 0 720.28 582.1342599999999" preserveAspectRatio="none" data-parent="shape_2x4hYb6SlO"><rect fill="rgba(0,0,0,0)" width="388" height="83" x="83.07" y="249.56712999999996"></rect><g data-width="387.7808288424379" transform="translate(83.17958557878103, 0)"><path d="M30.82-9.89L47.77-9.89L47.77 0L28.41 0Q22.93 0 20.02-0.58L20.02-0.58Q9.80-2.58 5.48-11.96L5.48-11.96Q2.66-18.28 2.66-27.58L2.66-27.58Q2.66-38.71 6.98-45.69L6.98-45.69Q10.13-50.76 15.41-53.08Q20.68-55.41 28.99-55.41L28.99-55.41L47.77-55.41L47.77-45.52L30.32-45.52Q22.43-45.52 18.77-41.29L18.77-41.29Q15.70-37.80 15.70-28.66L15.70-28.66Q15.70-16.36 20.44-12.54L20.44-12.54Q23.76-9.89 30.82-9.89L30.82-9.89Z" transform="translate(0 320.56712999999996) skewX(0)" fill="rgb(1, 60, 150)" stroke="rgb(1, 60, 150)" stroke-width="0.138" data-glyph-w="55.340143140406326" data-glyph-h="83.07" data-glyph-ascender="71.35713" data-glyph-descender="-11.712869999999999"></path><path d="M38.88-55.41L50.59-55.41L50.59 0L38.88 0L38.88-22.93L17.44-22.93L17.44 0L5.65 0L5.65-55.41L17.44-55.41L17.44-32.81L38.88-32.81L38.88-55.41Z" transform="translate(55.340143140406326 320.56712999999996) skewX(0)" fill="rgb(1, 60, 150)" stroke="rgb(1, 60, 150)" stroke-width="0.138" data-glyph-w="61.23811314040633" data-glyph-h="83.07" data-glyph-ascender="71.35713" data-glyph-descender="-11.712869999999999"></path><path d="M27.33-55.41L47.18-55.41L47.18-45.52L31.82-45.52Q25.83-45.52 23.09-44.69Q20.35-43.86 18.52-41.45L18.52-41.45Q17.28-39.79 16.82-38.13Q16.36-36.47 16.03-32.48L16.03-32.48L47.18-32.48L47.18-22.60L16.03-22.60Q16.70-15.45 20.27-12.67Q23.84-9.89 32.40-9.89L32.40-9.89L47.18-9.89L47.18 0L31.82 0Q25.59 0 20.85-0.75L20.85-0.75Q13.37-1.99 8.97-7.31L8.97-7.31Q2.66-14.95 2.66-27.99L2.66-27.99Q2.66-42.45 11.55-50.51L11.55-50.51Q14.62-53.25 18.07-54.33Q21.52-55.41 27.33-55.41L27.33-55.41Z" transform="translate(116.57825628081265 320.56712999999996) skewX(0)" fill="rgb(1, 60, 150)" stroke="rgb(1, 60, 150)" stroke-width="0.138" data-glyph-w="55.83856314040633" data-glyph-h="83.07" data-glyph-ascender="71.35713" data-glyph-descender="-11.712869999999999"></path><path d="M39.54 0L16.95-40.62L16.95 0L5.65 0L5.65-55.41L20.77-55.41L42.78-14.12L42.78-55.41L54.00-55.41L54.00 0L39.54 0Z" transform="translate(172.41681942121897 320.56712999999996) skewX(0)" fill="rgb(1, 60, 150)" stroke="rgb(1, 60, 150)" stroke-width="0.138" data-glyph-w="64.64398314040633" data-glyph-h="83.07" data-glyph-ascender="71.35713" data-glyph-descender="-11.712869999999999"></path><path d="M0.33 0L19.19-27.99L1.00-55.41L15.45-55.41L26.33-37.13L38.13-55.41L52.42-55.41L33.64-27.99L52.42 0L38.54 0L26.33-19.02L14.37 0L0.33 0Z" transform="translate(237.0608025616253 320.56712999999996) skewX(0)" fill="rgb(1, 60, 150)" stroke="rgb(1, 60, 150)" stroke-width="0.138" data-glyph-w="57.915313140406326" data-glyph-h="83.07" data-glyph-ascender="71.35713" data-glyph-descender="-11.712869999999999"></path><path d="M1.08-55.41L13.29-55.41L25.75-13.71L37.38-55.41L50.51-55.41L62.14-13.71L74.60-55.41L86.73-55.41L68.87 0L55.41 0L43.94-39.96L32.48 0L19.02 0L1.08-55.41Z" transform="translate(294.9761157020316 320.56712999999996) skewX(0)" fill="rgb(1, 60, 150)" stroke="rgb(1, 60, 150)" stroke-width="0.138" data-glyph-w="92.80471314040632" data-glyph-h="83.07" data-glyph-ascender="71.35713" data-glyph-descender="-11.712869999999999"></path></g></svg></g>
        </g>
  </svg>